<svg xmlns="http://www.w3.org/2000/svg" viewBox="0 0 91 70.5"><defs><style>.cls-1{fill:#fff;}.cls-1,.cls-2{stroke:#1d1d1b;stroke-miterlimit:10;}.cls-2{fill:#00bcd4;}</style></defs><title>Ресурс 1</title><g id="Слой_2" data-name="Слой 2"><g id="Слой_1-2" data-name="Слой 1"><path class="cls-1" d="M79.25,10.5h-45C28.06,10.5,23,15,23,20.5v30c0,5.5,5.06,10,11.25,10H68c9.34,0,14.81,1.72,18,3.74,4.5,2.84,4.5,6.26,4.5,6.26v-50C90.5,15,85.44,10.5,79.25,10.5Z"/><path class="cls-2" d="M34.25.5H11.75C5.56.5.5,5,.5,10.5v50s0-3.42,4.5-6.26c3.19-2,8.66-3.74,18-3.74H45.5v-40C45.5,5,40.44.5,34.25.5Z"/><polygon class="cls-1" points="11.75 20.5 11.75 10.5 45.5 10.5 45.5 20.5 34.25 20.5 34.25 50.5 23 50.5 23 20.5 11.75 20.5"/><polygon class="cls-2" points="34.25 50.5 34.25 20.5 45.5 20.5 56.75 30.5 68 20.5 79.25 20.5 79.25 50.5 68 50.5 68 34.5 61.25 40.5 52.25 40.5 45.5 34.5 45.5 50.5 34.25 50.5"/></g></g></svg>